<svg width="17" height="16" viewBox="0 0 17 16" fill="none" xmlns="http://www.w3.org/2000/svg">
<path d="M16.5698 8.42105V7.15789C16.5698 6.53474 16.3888 6.31579 15.7277 6.31579H10.254V0.842105C10.254 0.218947 10.0477 0 9.41193 0H8.14877C7.49614 0 7.30667 0.218947 7.30667 0.842105V6.31579H1.41193C0.788772 6.31579 0.569824 6.52211 0.569824 7.15789V8.42105C0.569824 9.07368 0.788772 9.26316 1.41193 9.26316H7.30667V15.1579C7.30667 15.7937 7.50877 16 8.14877 16H9.41193C10.0351 16 10.254 15.8189 10.254 15.1579V9.26316H15.7277C16.3635 9.26316 16.5698 9.06105 16.5698 8.42105Z" fill="white"/>
</svg>
