<svg width="28" height="29" viewBox="0 0 28 29" fill="none" xmlns="http://www.w3.org/2000/svg">
<path fill-rule="evenodd" clip-rule="evenodd" d="M26.2496 14.5C26.2496 14.2597 26.1574 14.0292 25.9933 13.8592C25.8292 13.6893 25.6067 13.5938 25.3746 13.5938H4.73686L10.2441 7.89167C10.3255 7.80741 10.39 7.70738 10.434 7.59729C10.4781 7.4872 10.5007 7.36921 10.5007 7.25005C10.5007 7.13089 10.4781 7.01289 10.434 6.9028C10.39 6.79271 10.3255 6.69268 10.2441 6.60842C10.1628 6.52416 10.0662 6.45732 9.95988 6.41172C9.85359 6.36612 9.73966 6.34265 9.62461 6.34265C9.50956 6.34265 9.39563 6.36612 9.28934 6.41172C9.18305 6.45732 9.08646 6.52416 9.00511 6.60842L2.00511 13.8584C1.92363 13.9426 1.85898 14.0426 1.81486 14.1527C1.77075 14.2628 1.74805 14.3808 1.74805 14.5C1.74805 14.6192 1.77075 14.7373 1.81486 14.8474C1.85898 14.9575 1.92363 15.0575 2.00511 15.1417L9.00511 22.3917C9.08646 22.4759 9.18305 22.5428 9.28934 22.5884C9.39563 22.634 9.50956 22.6574 9.62461 22.6574C9.73966 22.6574 9.85359 22.634 9.95988 22.5884C10.0662 22.5428 10.1628 22.4759 10.2441 22.3917C10.3255 22.3074 10.39 22.2074 10.434 22.0973C10.4781 21.9872 10.5007 21.8692 10.5007 21.75C10.5007 21.6309 10.4781 21.5129 10.434 21.4028C10.39 21.2927 10.3255 21.1927 10.2441 21.1084L4.73686 15.4063H25.3746C25.6067 15.4063 25.8292 15.3108 25.9933 15.1409C26.1574 14.9709 26.2496 14.7404 26.2496 14.5Z" fill="black"/>
</svg>
