<svg xmlns="http://www.w3.org/2000/svg" xmlns:xlink="http://www.w3.org/1999/xlink" viewBox="0 0 100 125" version="1.1" x="0px" y="0px"><title>magn_gls-3 copy 2</title><desc></desc><g stroke="none" stroke-width="1" fill="none" fill-rule="evenodd"><path d="M77.9435494,83.9293655 L74.4391682,87.4337467 L68.2436362,81.2382147 L61.9271897,87.4497973 L55.7680391,81.2906467 L49.5050946,87.4497973 L43.347014,81.2906467 L37.0829994,87.4497973 L30.8564363,81.2232341 L24.6448537,87.4337467 L21.3502003,84.1390933 L21.3502003,10.3502003 L77.9435494,10.3502003 L77.9435494,83.9293655 Z M16,5 L16,86.3551463 L24.6448537,95 L30.8564363,88.7884174 L37.0519683,94.9839494 L43.3159828,88.8247988 L49.4740634,94.9839494 L55.7370079,88.8247988 L61.8961586,94.9839494 L68.211535,88.7723668 L74.4391682,95 L83.2937498,86.1443484 L83.2937498,5 L16,5 Z M53.8858386,52.0453816 C53.2234838,50.4167806 51.2021781,49.9438229 49.6292192,49.4783555 C47.8529527,48.9529658 46.0060636,48.4832182 44.4801864,47.4302988 C39.9303761,44.2908012 40.249248,36.699937 45.5181253,34.402561 C46.0563554,34.1671521 46.6245467,34.0098563 47.2012983,33.8878717 L46.7219204,30.1705525 L52.4177436,30.1705525 L51.9287353,33.9510041 C52.8767908,34.1703623 53.790605,34.5074249 54.6016954,35.0199741 C56.3137595,36.1017846 57.2414843,37.8331094 57.6480995,39.6853488 L53.1004292,40.5852525 C52.882141,39.9400183 52.534378,39.3375858 51.9940078,38.9042195 C51.3616141,38.3980906 50.5216326,38.1648218 49.6944917,38.1380708 C48.2135562,38.0909891 46.2810639,38.4751335 45.7160827,39.9656993 C45.403631,40.7907002 45.6144289,41.748386 46.2446825,42.3861299 C46.8118037,42.9564613 48.1846651,43.5514035 50.3664768,44.1698867 C52.5472185,44.7883699 54.161909,45.4282538 55.2073381,46.0895386 C56.2516972,46.7508233 57.0702779,47.6550072 57.66094,48.8010201 C59.4158057,52.2069576 58.6967388,57.2671771 55.4769882,59.6908179 C54.4700805,60.4484062 53.2587951,60.9245741 51.9961479,61.1749634 L52.4177436,64.4375156 L46.7219204,64.4375156 L47.1552866,61.0765198 C45.9504215,60.7758385 44.816179,60.2568691 43.8724037,59.4853702 C42.066176,58.0097849 41.1288209,55.8055024 40.7008049,53.5584182 L45.0366073,52.5793316 C45.4111213,54.9055987 47.139236,56.7439275 49.6998419,56.7439275 C51.1433259,56.7439275 52.2326267,56.3769038 52.9645341,55.6428563 C53.8997491,54.7055012 54.3908975,53.2887681 53.8858386,52.0453816 L53.8858386,52.0453816 Z M49.6474099,70.7347014 C62.5874044,70.7347014 73.0770072,60.2440286 73.0770072,47.3040341 C73.0770072,34.3640395 62.5874044,23.8744367 49.6474099,23.8744367 C36.7074154,23.8744367 26.2178126,34.3640395 26.2178126,47.3040341 C26.2178126,60.2440286 36.7074154,70.7347014 49.6474099,70.7347014 L49.6474099,70.7347014 Z" fill="#fff"/></g><text x="0" y="115" fill="#000000" font-size="5px" font-weight="bold" font-family="'Helvetica Neue', Helvetica, Arial-Unicode, Arial, Sans-serif"></text><text x="0" y="120" fill="#000000" font-size="5px" font-weight="bold" font-family="'Helvetica Neue', Helvetica, Arial-Unicode, Arial, Sans-serif"></text></svg>