<svg width="15" height="13" viewBox="0 0 15 13" fill="none" xmlns="http://www.w3.org/2000/svg">
<path d="M13.5 1.625H7.5L6 0H1.5C0.675 0 0.00749999 0.73125 0.00749999 1.625L0 11.375C0 12.2688 0.675 13 1.5 13H13.5C14.325 13 15 12.2688 15 11.375V3.25C15 2.35625 14.325 1.625 13.5 1.625ZM9.75 4.0625C10.575 4.0625 11.25 4.79375 11.25 5.6875C11.25 6.58125 10.575 7.3125 9.75 7.3125C8.925 7.3125 8.25 6.58125 8.25 5.6875C8.25 4.79375 8.925 4.0625 9.75 4.0625ZM12.75 10.5625H6.75V9.75C6.75 8.66938 8.7525 8.125 9.75 8.125C10.7475 8.125 12.75 8.66938 12.75 9.75V10.5625Z" fill="#274C77"/>
</svg>
