<svg xmlns="http://www.w3.org/2000/svg" viewBox="0 0 620.86 682.35"><defs><style>.cls-1{fill:#fff;}</style></defs><g id="Layer_2" data-name="Layer 2"><g id="Layer_4_copy" data-name="Layer 4 copy"><path class="cls-1" d="M252.64,190a204.44,204.44,0,0,1,21.14-17.61c1.83-1.33,3.7-2.56,5.54-3.82s3.75-2.41,5.69-3.46,3.83-2.14,5.76-3.17L297,159l6.83-3.37,6.7-3.72c2.23-1.25,4.35-2.77,6.52-4.14a76.28,76.28,0,0,0,6.34-4.52,94.22,94.22,0,0,0,21.72-22.79,72.93,72.93,0,0,0,11.36-29.24,74.64,74.64,0,0,0-1.65-30c-.57,2.44-1,4.84-1.48,7.21l-1.71,7c-.75,2.28-1.36,4.54-2.1,6.75S348,86.56,347,88.64A79.73,79.73,0,0,1,332.62,111a104.36,104.36,0,0,1-20.25,16.91c-1.89,1.19-3.69,2.49-5.69,3.58s-3.85,2.33-5.9,3.34l-6,3.21-6.23,3-6.85,3.39c-2.3,1.3-4.66,2.52-6.85,4a114.08,114.08,0,0,0-12.63,9.21A125.57,125.57,0,0,0,251,168c-1.78,1.83-3.47,3.72-5.14,5.63s-3.24,3.88-4.78,5.87a168.76,168.76,0,0,0-16.21,25.18c-2.3,4.41-4.43,8.88-6.31,13.47a108.14,108.14,0,0,0-4.82,14c6.38-7.55,12.67-14.86,19.13-21.93S245.83,196.4,252.64,190Z"/><path class="cls-1" d="M372.37,29.31a148.85,148.85,0,0,1,25.09-12.76c8.65-3.28,17.57-5.38,26.4-5.24a87.32,87.32,0,0,1,26.92,4.29A67.87,67.87,0,0,1,463,21.11,65.94,65.94,0,0,1,473.88,29a64.33,64.33,0,0,1,9,10,58.23,58.23,0,0,1,3.64,5.68c.54,1,1.06,2,1.54,3,.24.49.47,1,.69,1.48s.44,1.05.56,1.35l.93,2.38,2,.64q11.15,3.6,22.35,7.07l19,5.73c-.29.33-.59.65-.9,1a32.16,32.16,0,0,1-4.07,3.4A53.62,53.62,0,0,1,518.93,76c-1.68.81-3.46,1.38-5.2,2.08s-3.58,1.17-5.38,1.73-3.64,1-5.48,1.49l-5.57,1.26,5.71-.4c1.9-.2,3.8-.47,5.71-.7s3.78-.68,5.67-1.07,3.77-.85,5.62-1.48a50.69,50.69,0,0,0,10.87-4.57,37.59,37.59,0,0,0,5-3.42,30.93,30.93,0,0,0,2.32-2.15c.37-.39.72-.81,1.08-1.24a11.46,11.46,0,0,0,1.09-1.6l1.4-2.56-3-1.21-21.72-8.9q-9.81-3.91-19.65-7.75c-.23-.61-.45-1.2-.7-1.78-.51-1.24-1.08-2.43-1.66-3.61a68.77,68.77,0,0,0-3.92-6.82,69.92,69.92,0,0,0-10-12.11A72.63,72.63,0,0,0,454.46,4.91a89.86,89.86,0,0,0-15.14-3.77A110.69,110.69,0,0,0,423.93,0a66.06,66.06,0,0,0-15.72,1.82,88.87,88.87,0,0,0-14.72,4.79,140.09,140.09,0,0,0-26.32,14.85,213.62,213.62,0,0,0-23,18.83,279.24,279.24,0,0,0-20.48,21.25c-3.24,3.68-6.35,7.48-9.36,11.34s-5.95,7.79-8.68,11.85a477.27,477.27,0,0,1,43.28-38.88A275.32,275.32,0,0,1,372.37,29.31Z"/><path class="cls-1" d="M383.48,525.53A147.29,147.29,0,0,1,377,549.9a151.54,151.54,0,0,1-10.4,22.72,147.39,147.39,0,0,1-14,20.46c-20.82,25.71-49.28,44.27-80,55.45a213,213,0,0,1-96.3,11.39c-32.19-3.63-63.28-15.35-88.88-34.63a171.36,171.36,0,0,1-18.13-15.72c-2.87-2.8-5.54-5.78-8.23-8.77l-7.76-9.39a164.85,164.85,0,0,1-24-41.39c-.7-1.86-1.5-3.68-2.13-5.56l-1.75-5.66c-.29-.94-.6-1.88-.87-2.83l-.67-2.89-1.35-5.76-.92-5.85-.48-2.92-.27-2.95-.55-5.9-.13-5.94c0-1-.08-2,0-3l.14-3c.11-2,.1-4,.31-5.95l.65-5.95.16-1.49L21.6,483l.49-3c.54-4,1.58-7.86,2.43-11.8l1.64-5.83c.51-2,1.17-3.87,1.84-5.79a181.6,181.6,0,0,1,9.29-22.66,227.16,227.16,0,0,1,12.05-21.63c4.36-7.07,9.2-13.87,14.25-20.53s10.41-13.13,16-19.41l4.23-4.68,4.33-4.6,4.42-4.52a33.57,33.57,0,0,0,2.5-2.76l1.12-1.45,1-1.45A84.25,84.25,0,0,0,103.6,341c1.84-4,3.41-8.06,4.89-12.13a386.65,386.65,0,0,0,14-49.63c-3,8-6.09,16-9.41,23.88s-6.65,15.7-10.4,23.28c-1.87,3.79-3.85,7.51-5.89,11.13a75.87,75.87,0,0,1-6.72,10.14l-.92,1.11-1,1a9.05,9.05,0,0,1-1,.92c-.34.3-.56.52-1,.9l-5,4.23-4.88,4.32-4.8,4.42A281.46,281.46,0,0,0,37,403.93a213.91,213.91,0,0,0-14.29,22.34,182.87,182.87,0,0,0-11.48,24.19c-.84,2.09-1.66,4.18-2.34,6.33l-2.14,6.42c-1.17,4.37-2.52,8.7-3.36,13.17-1.07,4.42-1.64,8.95-2.3,13.47-.32,2.27-.41,4.56-.62,6.84l-.27,3.42c-.09,1.14-.06,2.29-.09,3.44L0,510.44l.37,6.88.2,3.45L1,524.19,1.91,531,3.3,537.8l.7,3.39c.28,1.11.61,2.21.91,3.32l1.88,6.63c.67,2.2,1.51,4.33,2.27,6.49a181.68,181.68,0,0,0,26.4,47.5L44,615.59c3,3.39,6,6.78,9.26,10A196.45,196.45,0,0,0,73.7,643.52a194.13,194.13,0,0,0,47.68,26,205.91,205.91,0,0,0,52.67,11.9,216.29,216.29,0,0,0,53.64-1.72,219.43,219.43,0,0,0,51.43-14.49A204.13,204.13,0,0,0,303,653.29a191.24,191.24,0,0,0,22.11-14.94,171.89,171.89,0,0,0,36.43-38.62,145.54,145.54,0,0,0,25.33-73.79,152.16,152.16,0,0,0-.75-25.81A171.68,171.68,0,0,1,383.48,525.53Z"/><path class="cls-1" d="M234.84,305.65c4.52.53,9.06.93,13.6,1.34s9.09.67,13.65.85c9.11.49,18.25.54,27.4.37l6.86-.18,6.85-.37c4.57-.2,9.13-.68,13.7-1l6.84-.75,3.41-.39,3.41-.47,6.82-1,6.73-1.12c17.94-3.09,35.61-6.83,53.18-10.95s35-8.52,52.4-13.31c34.75-9.53,69.24-19.94,103.19-32.23-23.19,3.86-46.23,8.22-69.21,12.76l-28.09-20.94a3.19,3.19,0,0,1,.07-5.16l0,0a99.09,99.09,0,0,0,18.23-17.21,103.1,103.1,0,0,0,20.66-44.53,145.51,145.51,0,0,0,1.36-47.5,173,173,0,0,0-4.54-22.94c-1-3.75-2.13-7.46-3.37-11.12S485.4,82.53,483.77,79a256.39,256.39,0,0,1,3.1,45.32c-.36,14.94-2.22,29.7-6.4,43.47a109.37,109.37,0,0,1-8.08,19.67,90.15,90.15,0,0,1-11.86,17.07,86.79,86.79,0,0,1-15.47,13.67,102.87,102.87,0,0,1-8.86,5.54q-4.6,2.52-9.44,4.61a119.66,119.66,0,0,1-20.15,6.7,156.37,156.37,0,0,1-21.28,3.68,241.07,241.07,0,0,1-44.08.28,396.59,396.59,0,0,1-44.57-6.22q-22.29-4.32-44.48-10.57c3.28,2,6.7,3.81,10.11,5.61s6.93,3.4,10.44,5c7,3.23,14.22,6.08,21.52,8.7a270.53,270.53,0,0,0,45.18,11.9l1.57.25,21.43,30c-2.61.49-5.21,1-7.81,1.47l-6.58,1.21-6.56,1.12c-8.75,1.65-17.42,2.7-26.18,3.79-8.77.93-17.56,1.68-26.38,2.13a522.67,522.67,0,0,1-53.11,0c-17.75-.81-35.49-2.52-53.2-4.86s-35.39-5.4-53-9.36c16.58,7.22,34,12.37,51.57,16.82A425.24,425.24,0,0,0,234.84,305.65Zm152-49.39a159.35,159.35,0,0,0,24-3.37,135.09,135.09,0,0,0,23.35-7.51A125.23,125.23,0,0,0,446.55,239l29.2,21.77q-14.47,2.9-28.93,5.84L394.1,277.44l-13.16,2.68L370,282.25l-9.72-13.61a7.72,7.72,0,0,1,6.62-12.2A189.23,189.23,0,0,0,386.81,256.26Z"/><path class="cls-1" d="M593.18,320.08c-1.33,3.13-2.66,6.25-4.14,9.3s-3,6.05-4.75,8.87a32.51,32.51,0,0,1-2.82,3.95,12.64,12.64,0,0,1-1.61,1.58c-.6.51-1.28,1-1.93,1.49-5.46,3.87-11.21,7.55-17,11.15s-11.58,7.15-17.41,10.67q-35,21-70.46,41.47l-17.74,10.17-17.82,10c-11.91,6.63-23.78,13.32-35.81,19.75s-24,12.91-36.12,19.15-24.26,12.44-36.44,18.54c-24.35,12.21-48.88,24.06-73.26,35.91l-9.17,4.37-4.58,2.19-2.28,1.09-2.2,1a161.15,161.15,0,0,1-17.77,7,125.94,125.94,0,0,1-18.2,4.5,99,99,0,0,1-18.37,1.48,92.15,92.15,0,0,1-35.66-7.4,108.17,108.17,0,0,1-31.26-20.62,137.38,137.38,0,0,1-24.34-30.3c-6.69-11.35-12.18-23.69-14.43-37.28h0a61,61,0,0,0-.58,10.4A90.19,90.19,0,0,0,78,469a106.22,106.22,0,0,0,5.39,20.48,125,125,0,0,0,21.6,37,111.19,111.19,0,0,0,34.37,27.44c1.66.87,3.37,1.64,5.07,2.43s3.46,1.48,5.23,2.11a108.6,108.6,0,0,0,10.77,3.41A107,107,0,0,0,182.83,565a116.7,116.7,0,0,0,22.37-1.44,138.37,138.37,0,0,0,21.47-5.34,161.12,161.12,0,0,0,20.13-8.35l2.42-1.19,2.3-1.18,4.57-2.38,9.09-4.86q9-4.9,18-9.9L301,520.17c11.85-6.85,23.59-13.89,35.31-20.92l140.28-84.71q17.5-10.6,34.93-21.36c11.61-7.19,23.2-14.39,34.66-21.83q8.6-5.57,17.13-11.26c5.67-3.84,11.35-7.61,16.81-11.92.68-.56,1.36-1.1,2-1.73a15.89,15.89,0,0,0,1.93-2.09A31.94,31.94,0,0,0,587,339.8a76.2,76.2,0,0,0,4.18-9.52,153.35,153.35,0,0,0,5.9-19.68h0C595.79,313.78,594.54,317,593.18,320.08Z"/><path class="cls-1" d="M619.07,221.29c-1.8-5-5.71-10.17-12-12.14a23,23,0,0,0-8.57-.72,43.87,43.87,0,0,0-7.58,1.4c-2.41.66-4.7,1.48-7,2.34s-4.43,1.87-6.55,2.94a122.27,122.27,0,0,0-33.79,24.95c8.71-3.5,17-7.37,25.29-11.05,4.13-1.83,8.25-3.63,12.36-5.29a107.94,107.94,0,0,1,12.28-4.26,34.84,34.84,0,0,1,5.92-1.22,14.9,14.9,0,0,1,5.1,0c.37,0,.62.2.95.27a7.15,7.15,0,0,1,1.05.46l1,.61c.31.25.67.44,1,.73a15.74,15.74,0,0,1,3.34,4.14,39.84,39.84,0,0,1,3.9,11.93c.42,2.18.72,4.42,1,6.69s.41,4.6.89,6.94a63.09,63.09,0,0,0,3-13.86A35.38,35.38,0,0,0,619.07,221.29Z"/><path class="cls-1" d="M576.67,282.67c-8.71,5.78-16.38,13-23.59,20.4s-13.94,15.09-21.21,22a143.67,143.67,0,0,1-23.19,18.54c-16.61,10.56-35.62,16.86-55.19,20.48A275.75,275.75,0,0,1,423.73,368c-10,.83-20.1,1.13-30.2,1.24h-7.59l-7.59-.11L362.82,369l-15.54.37c-5.18.26-10.36.57-15.53.9A364.76,364.76,0,0,0,270.22,380c-20.12,5.32-39.87,12.64-57.83,23.31a146.41,146.41,0,0,0-25,18.7,106.49,106.49,0,0,0-10.49,11.49c-1.6,2-3.08,4.17-4.47,6.34a45,45,0,0,0-3.63,6.81,66.06,66.06,0,0,1,9.5-11.93,110.58,110.58,0,0,1,11.32-10.12,155.33,155.33,0,0,1,25.65-16c18-9,37.49-14.82,57.17-19a409.52,409.52,0,0,1,60-7.41l15.16-.55,15.18-.14,15.2.25,7.77.15,7.78,0c20.75-.09,41.65-1.59,62.28-5.82,5.15-1.05,10.27-2.36,15.35-3.83a151.48,151.48,0,0,0,15-5.14,136,136,0,0,0,28.11-15.05A142.48,142.48,0,0,0,538,331.08c7.05-7.74,13.34-15.91,19.84-23.71a152.09,152.09,0,0,1,21-21.76,95.05,95.05,0,0,1,12.38-8.72A106.67,106.67,0,0,1,604.9,270a94,94,0,0,0-14.59,5.13A97.7,97.7,0,0,0,576.67,282.67Z"/><path class="cls-1" d="M421.89,52.64a14.26,14.26,0,1,0,12.28-12.28A14.27,14.27,0,0,0,421.89,52.64Z"/><path class="cls-1" d="M161.69,337.32c-16,6.8-20.58,31.28-20.58,31.28l68.4-24.24S190.05,325.22,161.69,337.32Z"/></g></g></svg>