<svg width="15" height="15" viewBox="0 0 15 15" fill="none" xmlns="http://www.w3.org/2000/svg">
<path d="M10.625 0C9.50437 0 8.48875 0.21 7.695 0.605625C6.90188 1.00125 6.25 1.64562 6.25 2.5V5C6.25 5.08062 6.27687 5.15875 6.28937 5.23438C5.66377 5.0754 5.02048 4.99665 4.375 5C3.25437 5 2.23875 5.21 1.445 5.60563C0.651875 6.00125 0 6.64562 0 7.5V12.5C0 13.3544 0.651875 13.9987 1.44563 14.3944C2.23875 14.79 3.25437 15 4.375 15C5.49563 15 6.51125 14.79 7.305 14.3944C8.0975 13.9987 8.75 13.3544 8.75 12.5V12.2463C9.3614 12.4115 9.99166 12.4968 10.625 12.5C11.7456 12.5 12.7613 12.29 13.555 11.8944C14.3475 11.4987 15 10.8544 15 10V2.5C15 1.64562 14.3481 1.00125 13.5544 0.605625C12.7619 0.21 11.7463 0 10.625 0ZM10.625 1.25C11.5769 1.25 12.4244 1.455 12.9881 1.73813C13.5525 2.02125 13.75 2.31937 13.75 2.5C13.75 2.68125 13.5525 2.97875 12.9881 3.26187C12.425 3.545 11.5769 3.75 10.625 3.75C9.67313 3.75 8.82563 3.545 8.26188 3.26187C7.6975 2.97875 7.5 2.68063 7.5 2.5C7.5 2.31875 7.6975 2.02125 8.26188 1.73813C8.825 1.455 9.67313 1.25 10.625 1.25ZM7.5 4.2775C7.56562 4.31375 7.62687 4.36063 7.69562 4.39438C8.48875 4.79 9.50437 5 10.625 5C11.7456 5 12.7613 4.79 13.555 4.39438C13.6231 4.36063 13.6844 4.31375 13.75 4.2775V5C13.75 5.18125 13.5525 5.47875 12.9881 5.76188C12.4244 6.045 11.5769 6.25 10.625 6.25C9.67313 6.25 8.82563 6.045 8.26188 5.76188C7.6975 5.47875 7.5 5.18063 7.5 5V4.2775ZM4.375 6.25C5.32687 6.25 6.17437 6.455 6.73812 6.73812C7.3025 7.02125 7.5 7.31937 7.5 7.5C7.5 7.68125 7.3025 7.97875 6.73812 8.26188C6.17437 8.545 5.32687 8.75 4.375 8.75C3.42313 8.75 2.57562 8.545 2.01187 8.26188C1.4475 7.97875 1.25 7.68063 1.25 7.5C1.25 7.31875 1.4475 7.02125 2.01187 6.73812C2.575 6.455 3.42313 6.25 4.375 6.25ZM13.75 6.7775V7.5C13.75 7.68125 13.5525 7.97875 12.9881 8.26188C12.4244 8.545 11.5769 8.75 10.625 8.75C9.98833 8.75345 9.35524 8.65448 8.75 8.45687V7.5C8.75 7.41938 8.72313 7.34125 8.71063 7.26562C9.29188 7.41688 9.93625 7.5 10.625 7.5C11.7456 7.5 12.7613 7.29 13.555 6.89437C13.6231 6.86062 13.6844 6.81375 13.75 6.7775ZM1.25 9.2775C1.31562 9.31375 1.37688 9.36062 1.44563 9.39437C2.23875 9.79 3.25437 10 4.375 10C5.49563 10 6.51125 9.79 7.305 9.39437C7.37312 9.36062 7.43438 9.31375 7.5 9.2775V10C7.5 10.1813 7.3025 10.4788 6.73812 10.7619C6.17437 11.045 5.32687 11.25 4.375 11.25C3.42313 11.25 2.57562 11.045 2.01187 10.7619C1.4475 10.4788 1.25 10.1806 1.25 10V9.2775ZM13.75 9.2775V10C13.75 10.1813 13.5525 10.4788 12.9881 10.7619C12.4244 11.045 11.5769 11.25 10.625 11.25C9.91437 11.25 9.2725 11.15 8.75 10.9762V9.76562C9.32375 9.91688 9.94875 10 10.625 10C11.7456 10 12.7613 9.79 13.555 9.39437C13.6231 9.36062 13.6844 9.31375 13.75 9.2775ZM1.25 11.7775C1.31562 11.8138 1.37688 11.8606 1.44563 11.8944C2.23875 12.29 3.25437 12.5 4.375 12.5C5.49563 12.5 6.51125 12.29 7.305 11.8944C7.37312 11.8606 7.43438 11.8138 7.5 11.7775V12.5C7.5 12.6813 7.3025 12.9788 6.73812 13.2619C6.17437 13.545 5.32687 13.75 4.375 13.75C3.42313 13.75 2.57562 13.545 2.01187 13.2619C1.4475 12.9788 1.25 12.6806 1.25 12.5V11.7775Z" fill="#274C77"/>
</svg>
