<svg width="16" height="16" viewBox="0 0 16 16" fill="none" xmlns="http://www.w3.org/2000/svg">
<path d="M16 8.42105V7.15789C16 6.53474 15.8189 6.31579 15.1579 6.31579H9.68421V0.842105C9.68421 0.218947 9.47789 0 8.8421 0H7.57895C6.92632 0 6.73684 0.218947 6.73684 0.842105V6.31579H0.842105C0.218947 6.31579 0 6.52211 0 7.15789V8.42105C0 9.07368 0.218947 9.26316 0.842105 9.26316H6.73684V15.1579C6.73684 15.7937 6.93895 16 7.57895 16H8.8421C9.46526 16 9.68421 15.8189 9.68421 15.1579V9.26316H15.1579C15.7937 9.26316 16 9.06105 16 8.42105Z" fill="white"/>
</svg>
